<svg width="82" height="82" viewBox="0 0 82 82" fill="none" xmlns="http://www.w3.org/2000/svg">
<mask id="mask0_11_22" style="mask-type:luminance" maskUnits="userSpaceOnUse" x="0" y="64" width="82" height="18">
<path d="M0 64.6137H82V82H0V64.6137Z" fill="white"/>
</mask>
<g mask="url(#mask0_11_22)">
<path fill-rule="evenodd" clip-rule="evenodd" d="M41 76.3287C56.1303 68.4823 68.2805 64.1519 81.7505 65.1103L82 76.3883C68.3621 74.382 56.0487 76.7657 41.0288 81.995H40.976C25.9561 76.7657 13.6427 74.382 0 76.3883L0.25433 65.1103C13.7242 64.1519 25.8745 68.4823 41 76.3287Z" fill="#A17506"/>
</g>
<mask id="mask1_11_22" style="mask-type:luminance" maskUnits="userSpaceOnUse" x="6" y="0" width="71" height="77">
<path d="M6.03195 0H76.0544V76.0556H6.03195V0Z" fill="white"/>
</mask>
<g mask="url(#mask1_11_22)">
<path fill-rule="evenodd" clip-rule="evenodd" d="M12.3182 75.7179L10.8306 74.9332C10.8834 74.963 10.9698 74.9928 11.0274 75.0226L12.3182 75.7179ZM9.03113 61.8824L7.3132 48.6577C5.79681 36.7441 13.8106 27.532 23.7055 20.9618C31.8921 15.5289 39.426 8.00036 40.9472 0.238372L41 0.00496721L41.0576 0.238372C42.5788 8.00036 50.1127 15.5289 58.2945 20.9618C68.1942 27.532 76.208 36.7441 74.6916 48.6577L72.9737 61.8824C62.7669 62.9004 52.7856 66.8832 41 72.9865C29.2192 66.8832 19.2379 62.9004 9.03113 61.8824Z" fill="#0B470C"/>
</g>
</svg>
