<svg width="32" height="32" viewBox="0 0 32 32" fill="none" xmlns="http://www.w3.org/2000/svg">
<path d="M16 1C7.71573 1 1 7.71573 1 16C1 24.2843 7.71573 31 16 31C24.2843 31 31 24.2843 31 16C31 7.71573 24.2843 1 16 1ZM21.8456 15.2113L16.9346 23.716C16.7418 24.0499 16.3855 24.2556 16 24.2556C15.6145 24.2556 15.2583 24.0499 15.0655 23.716L10.1546 15.2113C9.9616 14.8773 9.9616 14.466 10.1544 14.1321C10.3472 13.7981 10.7034 13.5924 11.089 13.5924H13.4819V8.8237C13.4819 8.2277 13.965 7.74451 14.5611 7.74451L17.439 7.74451C18.035 7.74451 18.5181 8.2277 18.5181 8.8237L18.5181 13.5924H20.911C21.2966 13.5924 21.6529 13.7981 21.8457 14.1321C22.0384 14.4659 22.0384 14.8773 21.8456 15.2113Z" fill="#C5172E" stroke="#C5172E"/>
</svg>
