<svg width="30" height="30" viewBox="0 0 30 30" fill="none" xmlns="http://www.w3.org/2000/svg">
<path d="M15 30C23.2843 30 30 23.2843 30 15C30 6.71573 23.2843 0 15 0C6.71566 0 0 6.71566 0 15C0 23.2843 6.71566 30 15 30ZM9.15442 15.7887L14.0654 7.28396C14.2582 6.95006 14.6145 6.74444 15 6.74444C15.3855 6.74444 15.7417 6.95006 15.9345 7.28396L20.8454 15.7887C21.0384 16.1227 21.0384 16.534 20.8456 16.8679C20.6528 17.2019 20.2966 17.4076 19.911 17.4076H17.5181V22.1763C17.5181 22.7723 17.035 23.2555 16.4389 23.2555H13.561C12.965 23.2555 12.4819 22.7723 12.4819 22.1763V17.4076H10.089C9.70344 17.4076 9.34709 17.2019 9.15435 16.8679C8.9616 16.5341 8.9616 16.1227 9.15442 15.7887Z" fill="#3F7D58"/>
</svg>
